<svg width="64" height="65" viewBox="0 0 64 65" fill="none" xmlns="http://www.w3.org/2000/svg">
<path d="M36.8517 3.09016C36.8517 4.79508 37.3845 7.56557 38.0238 9.16393C39.3025 12.7869 38.45 17.0492 36.4254 17.0492C35.573 17.0492 34.0812 14.7049 33.1222 11.7213C31.4172 6.5 30.032 5.11475 29.1795 7.67213C28.6467 9.27049 31.95 18.2213 34.4008 21.9508C35.7861 24.082 35.8926 25.4672 35.1467 28.4508C33.9746 33.0328 31.95 34.0984 30.991 30.6885C30.5648 29.3033 28.7533 25.1475 26.9418 21.3115C24.3845 16.0902 23.532 12.8934 23.4254 7.9918C23.3189 3.19672 22.9992 1.59836 21.8271 1.59836C20.8681 1.59836 20.2287 3.09016 20.0156 6.07377C19.6959 11.082 18.5238 11.7213 15.8599 8.52459C14.7943 7.35246 13.409 6.39344 12.6631 6.39344C9.99921 6.39344 11.3845 9.48361 15.5402 12.7869C20.9746 17.0492 26.1959 27.1721 26.9418 34.6311C27.6877 41.4508 26.3025 42.623 22.573 38.2541C20.4418 35.8033 19.8025 33.7787 19.8025 30.2623C19.8025 25.3607 18.4172 21.3115 16.7123 21.3115C16.1795 21.3115 15.9664 23.2295 16.2861 25.5738C16.7123 28.877 16.4992 29.8361 15.3271 29.8361C13.6222 29.8361 12.0238 26.6393 10.4254 20.3525C9.57298 16.7295 6.69593 13.8525 5.31068 15.2377C4.88445 15.5574 5.63035 18.2213 6.80249 20.9918C9.46642 27.1721 8.40085 28.9836 3.92544 26.3197C2.22052 25.2541 0.5156 24.9344 0.195928 25.3607C-0.763089 26.8525 1.90085 29.4098 5.95003 30.9016C7.97462 31.6475 11.2779 33.7787 13.1959 35.5902C18.5238 40.5984 17.3517 43.3689 11.2779 39.959C8.29429 38.2541 3.81888 37.8279 3.81888 39.2131C3.81888 41.2377 7.86806 43.582 14.2615 45.3934C23.4254 47.9508 26.7287 51.6803 25.8763 58.7131C25.1304 64.3607 25.8763 65 32.3763 65C38.1304 65 39.7287 63.7213 38.1304 60.2049C34.5074 52.3197 38.7697 45.9262 49.2123 43.9016C56.1386 42.5164 61.3599 39 59.3353 36.9754C58.4828 36.123 56.991 36.5492 54.0074 38.1475C49.1058 40.918 47.5074 41.1311 47.5074 38.7869C47.5074 36.123 53.4746 31.2213 57.5238 30.4754C61.4664 29.7295 64.1304 27.3852 62.9582 25.5738C62.532 24.9344 61.2533 25.041 59.1222 26.1066C56.3517 27.5984 55.9254 27.5984 55.3926 26.1066C55.073 25.2541 55.2861 23.0164 55.9254 21.2049C57.4172 16.7295 57.4172 14.5984 55.8189 15.1311C55.073 15.4508 53.6877 18.0082 52.7287 20.8852C50.9172 26.6393 48.2533 27.918 47.7205 23.123C47.5074 21.5246 46.8681 20.2459 46.3353 20.2459C45.1631 20.2459 45.0566 21.418 45.2697 27.3852C45.5894 32.7131 43.6713 36.5492 38.5566 41.4508C34.5074 45.3934 33.6549 44.541 36.4254 39.3197C37.2779 37.5082 38.7697 32.6066 39.6222 28.5574C41.4336 19.8197 42.2861 18.0082 47.1877 12.3607C50.7041 8.09836 51.6631 5.32787 49.532 5.32787C48.8926 5.32787 47.4008 6.5 46.2287 7.9918C43.2451 11.8279 41.3271 11.4016 40.5812 6.60656C39.6222 1.06557 39.1959 2.23517e-07 37.9172 2.23517e-07C37.3845 2.23517e-07 36.8517 1.38525 36.8517 3.09016Z" fill="#FF6B4A"/>
</svg>
